<?xml version="1.0" encoding="utf-8"?>
<!-- Generator: Adobe Illustrator 19.0.0, SVG Export Plug-In . SVG Version: 6.00 Build 0)  -->
<svg version="1.1" xmlns="http://www.w3.org/2000/svg" xmlns:xlink="http://www.w3.org/1999/xlink" x="0px" y="0px"
	 viewBox="0 0 29.2 29.2" style="enable-background:new 0 0 29.2 29.2;" xml:space="preserve">
<style type="text/css">
	.st0{fill:#FFFFFF;}
</style>
<g id="BACKGROUND">
</g>
<g id="ELEMENTS">
	<path d="M0,21.6V7.6C0,3.4,3.4,0,7.6,0l13.9,0c4.2,0,7.6,3.4,7.6,7.6v13.9c0,4.2-3.4,7.6-7.6,7.6l-13.9,0C3.4,29.2,0,25.8,0,21.6z"
		/>
	<g>
		<circle class="st0" cx="19.2" cy="10.1" r="1"/>
		<path class="st0" d="M14.7,10.4c-2.3,0-4.2,1.9-4.2,4.2c0,2.3,1.9,4.2,4.2,4.2c2.3,0,4.2-1.9,4.2-4.2C18.9,12.3,17,10.4,14.7,10.4
			z M14.7,17.3c-1.5,0-2.7-1.2-2.7-2.7s1.2-2.7,2.7-2.7c1.5,0,2.7,1.2,2.7,2.7S16.2,17.3,14.7,17.3z"/>
		<path class="st0" d="M18,23.2h-6.8C8.4,23.2,6,20.9,6,18v-6.8C6,8.4,8.4,6,11.2,6H18c2.8,0,5.1,2.3,5.1,5.1V18
			C23.2,20.9,20.9,23.2,18,23.2z M11.2,7.7c-2,0-3.5,1.6-3.5,3.5V18c0,2,1.6,3.5,3.5,3.5H18c2,0,3.5-1.6,3.5-3.5v-6.8
			c0-2-1.6-3.5-3.5-3.5H11.2z"/>
	</g>
</g>
</svg>
