<?xml version="1.0" encoding="utf-8"?>
<!-- Generator: Adobe Illustrator 19.0.0, SVG Export Plug-In . SVG Version: 6.00 Build 0)  -->
<svg version="1.1" xmlns="http://www.w3.org/2000/svg" xmlns:xlink="http://www.w3.org/1999/xlink" x="0px" y="0px"
	 viewBox="0 0 29.2 29.2" style="enable-background:new 0 0 29.2 29.2;" xml:space="preserve">
<style type="text/css">
	.st0{fill:#FFFFFF;}
</style>
<g id="BACKGROUND">
</g>
<g id="ELEMENTS">
	<path d="M0,21.6V7.6C0,3.4,3.4,0,7.6,0h13.9c4.2,0,7.6,3.4,7.6,7.6v13.9c0,4.2-3.4,7.6-7.6,7.6H7.6C3.4,29.2,0,25.8,0,21.6z"/>
	<path class="st0" d="M22.7,9.6c-0.5,0.2-1.1,0.4-1.6,0.5c0.3,0,0.6-0.5,0.8-0.7c0.2-0.3,0.4-0.6,0.5-1c0,0,0-0.1,0-0.1
		c0,0-0.1,0-0.1,0c-0.6,0.3-1.2,0.6-1.9,0.7c-0.1,0-0.1,0-0.1,0c-0.1-0.1-0.1-0.1-0.2-0.2c-0.3-0.2-0.6-0.4-0.9-0.6
		C18.7,8.1,18.3,8,17.8,8c-0.5,0-0.9,0.2-1.3,0.4c-0.4,0.2-0.8,0.5-1.1,0.9c-0.3,0.4-0.5,0.8-0.6,1.3c-0.1,0.5-0.1,0.9,0,1.4
		c0,0.1,0,0.1-0.1,0.1C12,11.7,9.8,10.7,8,8.7c-0.1-0.1-0.1-0.1-0.2,0c-0.8,1.2-0.4,3,0.6,3.9c0.1,0.1,0.3,0.2,0.4,0.4
		c-0.1,0-0.7-0.1-1.3-0.4c-0.1,0-0.1,0-0.1,0.1c0,0.1,0,0.2,0,0.4c0.1,1.2,1,2.3,2.1,2.7c0.1,0.1,0.3,0.1,0.4,0.1
		C9.7,16,9.4,16,8.7,16c-0.1,0-0.1,0-0.1,0.1c0.5,1.5,1.7,1.9,2.6,2.2c0.1,0,0.2,0,0.4,0c0,0,0,0,0,0c-0.3,0.4-1.3,0.8-1.8,0.9
		c-0.9,0.3-1.8,0.4-2.7,0.3c-0.1,0-0.2,0-0.2,0c0,0,0,0.1,0,0.1c0.2,0.1,0.4,0.2,0.6,0.3c0.6,0.3,1.2,0.6,1.8,0.7
		c3.3,0.9,6.9,0.2,9.4-2.2c1.9-1.9,2.6-4.5,2.6-7.2c0-0.1,0.1-0.2,0.2-0.2c0.5-0.4,0.9-0.8,1.3-1.3C22.8,9.8,22.8,9.7,22.7,9.6
		C22.8,9.6,22.8,9.6,22.7,9.6C22.8,9.6,22.8,9.6,22.7,9.6z"/>
</g>
</svg>
