<?xml version="1.0" encoding="utf-8"?>
<!-- Generator: Adobe Illustrator 19.0.0, SVG Export Plug-In . SVG Version: 6.00 Build 0)  -->
<svg version="1.1" xmlns="http://www.w3.org/2000/svg" xmlns:xlink="http://www.w3.org/1999/xlink" x="0px" y="0px"
	 viewBox="0 0 29.2 29.2" style="enable-background:new 0 0 29.2 29.2;" xml:space="preserve">
<style type="text/css">
	.st0{fill:#FFFFFF;}
</style>
<g id="BACKGROUND">
</g>
<g id="ELEMENTS">
	<path d="M0,21.6V7.6C0,3.4,3.4,0,7.6,0l13.9,0c4.2,0,7.6,3.4,7.6,7.6v13.9c0,4.2-3.4,7.6-7.6,7.6H7.6C3.4,29.2,0,25.8,0,21.6z"/>
	<path class="st0" d="M22.4,12.5c0-1.9-1.6-3.5-3.5-3.5h-9C8,9,6.4,10.6,6.4,12.5v4.2c0,1.9,1.6,3.5,3.5,3.5h9
		c1.9,0,3.5-1.6,3.5-3.5V12.5z M17.2,14.9l-4,2c-0.2,0.1-0.7,0-0.7-0.2v-4.1c0-0.2,0.5-0.3,0.7-0.2l3.9,2.1
		C17.2,14.6,17.3,14.8,17.2,14.9z"/>
</g>
</svg>
