<?xml version="1.0" encoding="utf-8"?>
<!-- Generator: Adobe Illustrator 19.0.0, SVG Export Plug-In . SVG Version: 6.00 Build 0)  -->
<svg version="1.1" xmlns="http://www.w3.org/2000/svg" xmlns:xlink="http://www.w3.org/1999/xlink" x="0px" y="0px"
	 viewBox="0 0 29.2 29.2" style="enable-background:new 0 0 29.2 29.2;" xml:space="preserve">
<style type="text/css">
	.st0{fill:#FFFFFF;}
</style>
<g id="BACKGROUND">
</g>
<g id="ELEMENTS">
	<g>
		<path d="M0,21.6V7.6C0,3.4,3.4,0,7.6,0h13.9c4.2,0,7.6,3.4,7.6,7.6l0,13.9c0,4.2-3.4,7.6-7.6,7.6h-4.7l-2.5-0.6l-2.1,0.6l-4.7,0
			C3.4,29.2,0,25.8,0,21.6z"/>
		<g>
			<path class="st0" d="M20.3,19.3l0.6-4.2h-4.1v-2.7c0-1.2,0.6-2.3,2.4-2.3h1.8V6.5c0,0-1.7-0.3-3.3-0.3c-3.3,0-5.5,2-5.5,5.7v3.2
				H8.6v4.2h3.7v9.9h4.6v-9.9H20.3z"/>
		</g>
	</g>
</g>
</svg>
